<svg width="107" height="32" viewBox="0 0 107 32" fill="none" xmlns="http://www.w3.org/2000/svg">
<g clip-path="url(#clip0_1523_97894)">
<path d="M0 1H4.51316V9.6307C5.25845 9.0083 6.12796 8.53112 7.10098 8.15768C8.074 7.78423 9.08843 7.59751 10.1443 7.59751C12.4422 7.59751 14.1606 8.17842 15.2992 9.361C16.4378 10.5436 16.9968 12.4938 16.9968 15.2531V26H12.4629V16.3527C12.4629 14.6307 12.1317 13.4274 11.4899 12.722C10.8481 12.0166 9.89583 11.6639 8.67438 11.6639C7.84627 11.6639 7.08028 11.8299 6.37639 12.1826C5.6725 12.5353 5.05143 12.9917 4.53386 13.5311V26H0V1Z" fill="white"/>
<path d="M23.127 25.2776C21.7985 24.5095 20.7814 23.4091 20.0757 21.9974C19.37 20.5856 18.9963 18.904 18.9963 16.994C18.9963 15.1047 19.3492 13.4438 20.0757 12.0321C20.7814 10.6203 21.7985 9.52001 23.0855 8.75185C24.3724 7.98369 25.8462 7.58923 27.5275 7.58923C28.5446 7.58923 29.541 7.75532 30.5373 8.06674C31.5336 8.37815 32.3639 8.87642 33.0697 9.56153V8.00445H37.5532V26.0043H33.1319V24.2603C32.4885 25.0493 31.6997 25.6098 30.7241 25.9212C29.7485 26.2326 28.7522 26.3987 27.7143 26.3987C25.9915 26.4402 24.4555 26.0458 23.127 25.2776ZM31.2846 21.7482C32.0733 21.3538 32.696 20.7517 33.1319 19.9628V14.0044C32.696 13.2778 32.0526 12.7172 31.2223 12.302C30.392 11.8868 29.5202 11.6999 28.6276 11.6999C27.1539 11.6999 25.9707 12.1774 25.0574 13.1117C24.1649 14.0459 23.7082 15.3539 23.7082 17.0147C23.7082 18.6549 24.1649 19.9628 25.0574 20.9178C25.95 21.8728 27.1746 22.3503 28.7107 22.3503C29.624 22.3503 30.4958 22.1427 31.2846 21.7482Z" fill="white"/>
<path d="M40.9115 4.97628C40.372 4.43668 40.0815 3.77255 40.0815 3.00466C40.0815 2.23676 40.3513 1.57264 40.9115 1.03304C41.451 0.493436 42.115 0.202881 42.8828 0.202881C43.6505 0.202881 44.3145 0.472682 44.854 1.03304C45.3935 1.57264 45.6633 2.23676 45.6633 3.00466C45.6633 3.77255 45.3935 4.43668 44.854 4.97628C44.3145 5.51588 43.6713 5.80644 42.8828 5.80644C42.1358 5.80644 41.4718 5.53664 40.9115 4.97628ZM40.5588 8.00635H45.1653V26H40.5588V8.00635Z" fill="white"/>
<path d="M48.1819 7.9836H52.5606V10.3291C53.2247 9.47805 54.0133 8.79309 54.9679 8.3157C55.9225 7.83831 56.9809 7.58923 58.1637 7.58923C58.7033 7.58923 59.1391 7.6515 59.4089 7.75528V12.6745C58.5788 12.4462 57.8525 12.3424 57.2299 12.3424C55.881 12.3424 54.8019 12.7783 53.9718 13.6708C53.1417 14.5426 52.7266 15.8295 52.7266 17.49V26H48.1819V7.9836Z" fill="white"/>
<path d="M61.4084 8.0089H65.94V9.58267C66.6533 8.89021 67.5135 8.38661 68.4995 8.07185C69.5066 7.7571 70.5136 7.58923 71.5416 7.58923C73.2199 7.58923 74.7305 7.98792 76.0312 8.76431C77.3319 9.5407 78.339 10.6528 79.0523 12.0797C79.7656 13.5066 80.1222 15.1853 80.1222 17.0948C80.1222 19.0252 79.7656 20.7039 79.0313 22.1518C78.318 23.5787 77.29 24.6908 75.9683 25.4672C74.6466 26.2436 73.115 26.6423 71.3528 26.6423C70.3038 26.6423 69.3177 26.4744 68.3527 26.1596C67.3876 25.8449 66.5904 25.2783 65.961 24.481V32.0007H61.4294V8.0089H61.4084ZM74.0172 21.0397C74.9193 20.0744 75.3808 18.7525 75.3808 17.0948C75.3808 15.4161 74.9403 14.0941 74.0381 13.1499C73.136 12.2056 71.9402 11.723 70.4506 11.723C69.5485 11.723 68.6674 11.9328 67.8282 12.3315C66.989 12.7512 66.3386 13.3177 65.8981 14.0522V20.0744C66.3596 20.8718 66.989 21.4803 67.7862 21.879C68.5835 22.2777 69.4436 22.4875 70.3667 22.4875C71.8773 22.4875 73.0941 22.0049 74.0172 21.0397Z" fill="white"/>
<path d="M82.3777 8.00635H86.9842V26H82.3777V8.00635Z" fill="white"/>
<path d="M81.8901 2.80178C81.8901 3.56967 82.1806 4.2338 82.7201 4.7734C83.2804 5.33376 83.9444 5.60356 84.6914 5.60356C85.4799 5.60356 86.1231 5.313 86.6626 4.7734C87.2021 4.2338 87.4719 3.56967 87.4719 2.80178C87.4719 2.03388 87.2021 1.36976 86.6626 0.830157C86.1231 0.269801 85.4591 0 84.6914 0C83.9236 0 83.2596 0.290555 82.7201 0.830157C82.1599 1.36976 81.8901 2.03388 81.8901 2.80178Z" fill="white"/>
<path d="M89.9832 7.9836H94.3619V9.62334C95.1297 9.00066 96.0221 8.52326 97.0182 8.14965C98.0143 7.77604 99.0519 7.58923 100.131 7.58923C102.435 7.58923 104.157 8.17041 105.298 9.35351C106.44 10.5366 107 12.4877 107 15.2483V26H102.476V16.3691C102.476 14.6463 102.144 13.4425 101.501 12.7368C100.857 12.0311 99.9028 11.6782 98.6784 11.6782C97.8483 11.6782 97.0804 11.8443 96.3749 12.1971C95.6693 12.55 95.0467 13.0066 94.5279 13.5463V25.9792H89.9832V7.9836Z" fill="white"/>
</g>
<defs>
<clipPath id="clip0_1523_97894">
<rect width="107" height="32" fill="white"/>
</clipPath>
</defs>
</svg>
