<svg width="107" height="32" viewBox="0 0 107 32" fill="none" xmlns="http://www.w3.org/2000/svg">
<g clip-path="url(#clip0_1522_97686)">
<path d="M0 1H4.51316V9.6307C5.25845 9.0083 6.12796 8.53112 7.10098 8.15768C8.074 7.78423 9.08843 7.59751 10.1443 7.59751C12.4422 7.59751 14.1606 8.17842 15.2992 9.361C16.4378 10.5436 16.9968 12.4938 16.9968 15.2531V26H12.4629V16.3527C12.4629 14.6307 12.1317 13.4274 11.4899 12.722C10.8481 12.0166 9.89583 11.6639 8.67438 11.6639C7.84627 11.6639 7.08028 11.8299 6.37639 12.1826C5.6725 12.5353 5.05143 12.9917 4.53386 13.5311V26H0V1Z" fill="white"/>
<path d="M23.1271 25.2776C21.7986 24.5095 20.7815 23.4091 20.0758 21.9974C19.3701 20.5856 18.9964 18.904 18.9964 16.994C18.9964 15.1047 19.3493 13.4438 20.0758 12.0321C20.7815 10.6203 21.7986 9.52001 23.0856 8.75185C24.3725 7.98369 25.8463 7.58923 27.5276 7.58923C28.5447 7.58923 29.541 7.75532 30.5374 8.06674C31.5337 8.37815 32.364 8.87642 33.0698 9.56153V8.00445H37.5533V26.0043H33.132V24.2603C32.4886 25.0493 31.6998 25.6098 30.7242 25.9212C29.7486 26.2326 28.7523 26.3987 27.7144 26.3987C25.9916 26.4402 24.4556 26.0458 23.1271 25.2776ZM31.2846 21.7482C32.0734 21.3538 32.6961 20.7517 33.132 19.9628V14.0044C32.6961 13.2778 32.0527 12.7172 31.2224 12.302C30.3921 11.8868 29.5203 11.6999 28.6277 11.6999C27.154 11.6999 25.9708 12.1774 25.0575 13.1117C24.165 14.0459 23.7083 15.3539 23.7083 17.0147C23.7083 18.6549 24.165 19.9628 25.0575 20.9178C25.9501 21.8728 27.1747 22.3503 28.7108 22.3503C29.6241 22.3503 30.4959 22.1427 31.2846 21.7482Z" fill="#47EDEA"/>
<path d="M40.9116 4.97622C40.3721 4.43662 40.0816 3.77249 40.0816 3.0046C40.0816 2.2367 40.3513 1.57258 40.9116 1.03298C41.4511 0.493375 42.1151 0.20282 42.8828 0.20282C43.6506 0.20282 44.3146 0.472621 44.8541 1.03298C45.3936 1.57258 45.6633 2.2367 45.6633 3.0046C45.6633 3.77249 45.3936 4.43662 44.8541 4.97622C44.3146 5.51582 43.6713 5.80638 42.8828 5.80638C42.1358 5.80638 41.4718 5.53658 40.9116 4.97622ZM40.5588 8.00629H45.1653V25.9999H40.5588V8.00629Z" fill="#47EDEA"/>
<path d="M48.1819 7.98354H52.5606V10.329C53.2247 9.47799 54.0133 8.79303 54.9679 8.31564C55.9225 7.83825 56.9809 7.58917 58.1637 7.58917C58.7033 7.58917 59.1391 7.65144 59.4089 7.75522V12.6744C58.5788 12.4461 57.8525 12.3423 57.2299 12.3423C55.881 12.3423 54.8019 12.7782 53.9718 13.6707C53.1417 14.5425 52.7266 15.8294 52.7266 17.4899V25.9999H48.1819V7.98354Z" fill="white"/>
<path d="M61.4084 8.0089H65.94V9.58267C66.6533 8.89021 67.5134 8.38661 68.4995 8.07185C69.5065 7.7571 70.5135 7.58923 71.5415 7.58923C73.2199 7.58923 74.7304 7.98792 76.0311 8.76431C77.3319 9.5407 78.3389 10.6528 79.0522 12.0797C79.7655 13.5066 80.1222 15.1853 80.1222 17.0948C80.1222 19.0252 79.7655 20.7039 79.0312 22.1518C78.3179 23.5787 77.2899 24.6908 75.9682 25.4672C74.6465 26.2436 73.115 26.6423 71.3527 26.6423C70.3037 26.6423 69.3177 26.4744 68.3526 26.1596C67.3876 25.8449 66.5903 25.2783 65.961 24.481V32.0007H61.4294V8.0089H61.4084ZM74.0171 21.0397C74.9192 20.0744 75.3808 18.7525 75.3808 17.0948C75.3808 15.4161 74.9402 14.0941 74.0381 13.1499C73.136 12.2056 71.9401 11.723 70.4506 11.723C69.5485 11.723 68.6673 11.9328 67.8281 12.3315C66.989 12.7512 66.3386 13.3177 65.898 14.0522V20.0744C66.3596 20.8718 66.9889 21.4803 67.7862 21.879C68.5834 22.2777 69.4436 22.4875 70.3667 22.4875C71.8772 22.4875 73.094 22.0049 74.0171 21.0397Z" fill="white"/>
<path d="M82.3776 8.00629H86.9841V25.9999H82.3776V8.00629Z" fill="white"/>
<path d="M81.8901 2.80175C81.8901 3.56964 82.1806 4.23377 82.7201 4.77337C83.2804 5.33373 83.9444 5.60353 84.6914 5.60353C85.4799 5.60353 86.1231 5.31297 86.6626 4.77337C87.2021 4.23377 87.4719 3.56964 87.4719 2.80175C87.4719 2.03385 87.2021 1.36973 86.6626 0.830126C86.1231 0.26977 85.4591 -3.05176e-05 84.6914 -3.05176e-05C83.9236 -3.05176e-05 83.2596 0.290524 82.7201 0.830126C82.1599 1.36973 81.8901 2.03385 81.8901 2.80175Z" fill="white"/>
<path d="M89.9831 7.98354H94.3618V9.62328C95.1297 9.0006 96.022 8.5232 97.0181 8.14959C98.0142 7.77598 99.0519 7.58917 100.131 7.58917C102.434 7.58917 104.157 8.17035 105.298 9.35345C106.44 10.5366 107 12.4876 107 15.2482V25.9999H102.476V16.3691C102.476 14.6463 102.144 13.4424 101.501 12.7367C100.857 12.031 99.9027 11.6781 98.6783 11.6781C97.8482 11.6781 97.0804 11.8442 96.3748 12.1971C95.6692 12.5499 95.0467 13.0065 94.5279 13.5462V25.9792H89.9831V7.98354Z" fill="white"/>
</g>
<defs>
<clipPath id="clip0_1522_97686">
<rect width="107" height="32" fill="white"/>
</clipPath>
</defs>
</svg>
