<svg width="75" height="75" viewBox="0 0 75 75" fill="none" xmlns="http://www.w3.org/2000/svg">
<g clip-path="url(#clip0_1523_97708)">
<rect width="75" height="75" rx="14" fill="white"/>
<g clip-path="url(#clip1_1523_97708)">
<g clip-path="url(#clip2_1523_97708)">
<path fill-rule="evenodd" clip-rule="evenodd" d="M32.0175 18H26V51.3333H32.0156V34.7448L32.0175 29.5076V18Z" fill="#0B9DBC"/>
<path d="M35.468 27.5436C34.1706 28.0415 33.0113 28.6777 32.0175 29.5076L32.0156 34.7448L32.0451 34.7082C32.7352 33.9889 33.5633 33.3804 34.5019 32.9101C35.4404 32.4398 36.4617 32.2185 37.5658 32.2185C39.1944 32.2185 40.4642 32.6888 41.3199 33.6293C42.1756 34.5698 42.6173 36.1743 42.6173 38.4703V51.3333H48.6624V37.0041C48.6624 33.325 47.9171 30.7248 46.3989 29.148C44.8807 27.5712 42.5897 26.7967 39.5257 26.7967C38.1179 26.7967 36.7653 27.0456 35.468 27.5436Z" fill="#47EDEA"/>
<path d="M41.9023 57.7388C41.9023 58.7626 42.2897 59.6481 43.009 60.3676C43.756 61.1147 44.6413 61.4745 45.6373 61.4745C46.6887 61.4745 47.5463 61.0871 48.2657 60.3676C48.985 59.6481 49.3447 58.7626 49.3447 57.7388C49.3447 56.7149 48.985 55.8294 48.2657 55.1099C47.5463 54.3628 46.661 54.0031 45.6373 54.0031C44.6137 54.0031 43.7283 54.3905 43.009 55.1099C42.262 55.8294 41.9023 56.7149 41.9023 57.7388Z" fill="#47EDEA"/>
</g>
</g>
</g>
<defs>
<clipPath id="clip0_1523_97708">
<rect width="75" height="75" fill="white"/>
</clipPath>
<clipPath id="clip1_1523_97708">
<rect width="24" height="44" fill="white" transform="translate(26 18)"/>
</clipPath>
<clipPath id="clip2_1523_97708">
<rect width="24" height="44" fill="white" transform="translate(26 18)"/>
</clipPath>
</defs>
</svg>
